# Blender v2.90.1 OBJ File: 'tavolino_candela.blend'
# www.blender.org
mtllib tavolino_candela.mtl
o Cube
v 0.985858 0.985858 -1.000000
v 1.000000 0.985858 -0.985858
v 0.985858 1.000000 -0.985858
v -1.000000 0.985858 -0.985858
v -0.985858 0.985858 -1.000000
v -0.985858 1.000000 -0.985858
v 0.985858 0.985858 1.000000
v 0.985858 1.000000 0.985858
v 1.000000 0.985858 0.985858
v -0.985858 0.985858 1.000000
v -1.000000 0.985858 0.985858
v -0.985858 1.000000 0.985858
v -1.000000 0.839900 0.985858
v -0.985858 0.839900 1.000000
v 0.985858 0.840100 1.000000
v 1.000000 0.839900 0.985858
v -0.985858 0.839900 -1.000000
v -1.000000 0.839900 -0.985858
v 1.000000 0.839900 -0.985858
v 0.985858 0.839900 -1.000000
v 0.834142 0.839900 -1.000000
v 0.820000 0.854142 -1.000000
v 0.805858 0.840000 -0.985858
v 0.820000 0.825858 -0.985858
v 0.834142 0.839900 1.000000
v 0.820000 0.825858 0.985858
v 0.805858 0.840000 0.985858
v 0.820000 0.854142 1.000000
v -0.809656 0.840000 0.985858
v -0.823798 0.825858 0.985858
v -0.837940 0.839900 1.000000
v -0.823798 0.854142 1.000000
v -0.837940 0.839900 -1.000000
v -0.823798 0.825858 -0.985858
v -0.809656 0.840000 -0.985858
v -0.823798 0.854142 -1.000000
v -1.000000 0.839900 0.834142
v -0.985858 0.825858 0.820000
v -0.985858 0.840000 0.805858
v -1.000000 0.854142 0.820000
v -0.823798 0.825858 0.834142
v -0.809656 0.840000 0.820100
v -0.823698 0.840000 0.819900
v -0.823898 0.840000 0.805858
v -0.837940 0.825858 0.820000
v 0.820000 0.825858 0.834142
v 0.834142 0.825858 0.820000
v 0.820100 0.840000 0.805858
v 0.819900 0.840000 0.819900
v 0.805858 0.840000 0.820100
v 1.000000 0.839900 0.834142
v 1.000000 0.854142 0.820000
v 0.985858 0.840000 0.805858
v 0.985858 0.825858 0.820000
v -0.985858 0.840000 -0.824848
v -0.985858 0.825858 -0.838990
v -1.000000 0.839900 -0.853132
v -1.000000 0.854142 -0.838990
v -0.823798 0.825858 -0.853132
v -0.837940 0.825858 -0.838990
v -0.823898 0.840000 -0.824848
v -0.823698 0.840000 -0.838890
v -0.809656 0.840000 -0.839090
v 0.820100 0.840000 -0.824848
v 0.834142 0.825858 -0.838990
v 0.820000 0.825858 -0.853132
v 0.805858 0.840000 -0.839090
v 0.819900 0.840000 -0.838890
v 1.000000 0.839900 -0.853132
v 0.985858 0.825858 -0.838990
v 0.985858 0.840000 -0.824848
v 1.000000 0.854142 -0.838990
v 0.834142 -0.425858 1.000000
v 0.834142 -0.440000 0.985858
v 0.820000 -0.425858 0.985858
v 0.985858 -0.425858 1.000000
v 1.000000 -0.425858 0.985858
v 0.985858 -0.440000 0.985858
v -1.000000 -0.425858 0.834142
v -0.985858 -0.440000 0.834142
v -0.985858 -0.425858 0.820000
v -1.000000 -0.425858 0.985858
v -0.985858 -0.425858 1.000000
v -0.985858 -0.440000 0.985858
v -0.837940 -0.425858 -1.000000
v -0.837940 -0.440000 -0.985858
v -0.823798 -0.425858 -0.985858
v -0.985858 -0.425858 -1.000000
v -1.000000 -0.425858 -0.985858
v -0.985858 -0.440000 -0.985858
v 1.000000 -0.425858 -0.853132
v 0.985858 -0.440000 -0.853132
v 0.985858 -0.425858 -0.838990
v 1.000000 -0.425858 -0.985858
v 0.985858 -0.425858 -1.000000
v 0.985858 -0.440000 -0.985858
v 0.834142 -0.425858 -1.000000
v 0.820000 -0.425858 -0.985858
v 0.834142 -0.440000 -0.985858
v 0.820000 -0.425858 0.834142
v 0.834142 -0.440000 0.834142
v 0.834142 -0.425858 0.820000
v -0.837940 -0.425858 1.000000
v -0.823798 -0.425858 0.985858
v -0.837940 -0.440000 0.985858
v -0.823798 -0.425858 -0.853132
v -0.837940 -0.440000 -0.853132
v -0.837940 -0.425858 -0.838990
v -0.823798 -0.425858 0.834142
v -0.837940 -0.425858 0.820000
v -0.837940 -0.440000 0.834142
v 1.000000 -0.425858 0.834142
v 0.985858 -0.425858 0.820000
v 0.985858 -0.440000 0.834142
v -1.000000 -0.425858 -0.853132
v -0.985858 -0.425858 -0.838990
v -0.985858 -0.440000 -0.853132
v 0.820000 -0.425858 -0.853132
v 0.834142 -0.425858 -0.838990
v 0.834142 -0.440000 -0.853132
vt 0.087570 0.129706
vt 0.087570 0.908503
vt 0.025737 0.977448
vt 0.655002 0.389131
vt 0.717309 0.976737
vt 0.655002 0.976737
vt 0.026173 0.597608
vt 0.873915 0.535775
vt 0.951775 0.597608
vt 0.022436 0.980865
vt 0.487733 0.531674
vt 0.487733 0.980865
vt 0.096959 0.051615
vt 0.025737 0.505442
vt 0.096959 0.505442
vt 0.951339 0.051846
vt 0.889507 0.899588
vt 0.951339 0.977448
vt 0.482529 0.389843
vt 0.553750 0.984040
vt 0.482529 0.984040
vt 0.887649 0.389843
vt 0.825342 0.977448
vt 0.887649 0.977448
vt 0.374779 0.389843
vt 0.305341 0.977448
vt 0.374779 0.977448
vt 0.194144 0.389843
vt 0.122923 0.977448
vt 0.194144 0.977448
vt 0.482297 0.051846
vt 0.544603 0.646043
vt 0.482297 0.646043
vt 0.026173 0.899685
vt 0.102203 0.134166
vt 0.026173 0.134166
vt 0.951775 0.134166
vt 0.873962 0.899685
vt 0.951775 0.899685
vt 0.376879 0.051846
vt 0.305657 0.639451
vt 0.376879 0.639451
vt 0.026173 0.975269
vt 0.095611 0.912963
vt 0.026173 0.912963
vt 0.026173 0.120888
vt 0.095611 0.049667
vt 0.026173 0.049667
vt 0.951775 0.975269
vt 0.880554 0.912962
vt 0.880554 0.975269
vt 0.867276 0.975269
vt 0.108889 0.906371
vt 0.108889 0.975269
vt 0.738604 0.053184
vt 0.809825 0.640789
vt 0.738604 0.640789
vt 0.028539 0.607434
vt 0.097977 0.984057
vt 0.028539 0.984057
vt 0.873868 0.906277
vt 0.102297 0.127574
vt 0.102297 0.906277
vt 0.867276 0.049667
vt 0.108889 0.127480
vt 0.867276 0.127480
vt 0.717309 0.050278
vt 0.655002 0.504105
vt 0.717309 0.504104
vt 0.823208 0.051846
vt 0.894430 0.639451
vt 0.823208 0.639451
vt 0.637120 0.051846
vt 0.565899 0.646043
vt 0.637120 0.646043
vt 0.123489 0.427376
vt 0.194710 0.050753
vt 0.194710 0.427376
vt 0.464681 0.051846
vt 0.395242 0.646043
vt 0.464681 0.646043
vt 0.951775 0.049667
vt 0.880554 0.120888
vt 0.951775 0.120888
vt 0.215439 0.051846
vt 0.284878 0.639452
vt 0.215439 0.639452
vt 0.949409 0.521901
vt 0.949409 0.528540
vt 0.956048 0.521901
vt 0.957978 0.051846
vt 0.951339 0.045207
vt 0.022436 0.984087
vt 0.019098 0.980865
vt 0.022436 0.984087
vt 0.951339 0.984087
vt 0.957978 0.977448
vt 0.957978 0.977448
vt 0.559260 0.639451
vt 0.559260 0.646090
vt 0.116850 0.427406
vt 0.116850 0.423198
vt 0.816569 0.646090
vt 0.823208 0.646090
vt 0.823208 0.646090
vt 0.723948 0.983376
vt 0.717309 0.983376
vt 0.723948 0.983329
vt 0.103597 0.505478
vt 0.103597 0.500407
vt 0.901069 0.639451
vt 0.901069 0.646090
vt 0.901069 0.646090
vt 0.873868 0.127527
vt 0.873915 0.127527
vt 0.873915 0.127527
vt 0.560389 0.977448
vt 0.560389 0.984087
vt 0.648363 0.504141
vt 0.648363 0.499070
vt 0.641725 0.504141
vt 0.102250 0.899685
vt 0.095611 0.906324
vt 0.873915 0.912963
vt 0.873915 0.906324
vt 0.475658 0.646090
vt 0.475658 0.639451
vt 0.123489 0.050753
vt 0.116850 0.050753
vt 0.123489 0.046545
vt 0.194710 0.046545
vt 0.201349 0.050753
vt 0.019534 0.120888
vt 0.026173 0.127527
vt 0.019534 0.120888
vt 0.025737 0.051615
vt 0.025737 0.046545
vt 0.019098 0.051615
vt 0.095611 0.981908
vt 0.102250 0.975269
vt 0.095611 0.981908
vt 0.723948 0.050278
vt 0.717309 0.045207
vt 0.723948 0.050278
vt 0.958414 0.912963
vt 0.951775 0.906324
vt 0.958414 0.912963
vt 0.643759 0.051846
vt 0.637120 0.045207
vt 0.643759 0.051846
vt 0.565899 0.051846
vt 0.565899 0.045207
vt 0.559260 0.051846
vt 0.873915 0.120888
vt 0.880554 0.127527
vt 0.873915 0.120888
vt 0.816569 0.051846
vt 0.823208 0.045207
vt 0.816569 0.051846
vt 0.648363 0.389131
vt 0.655002 0.382492
vt 0.894430 0.051846
vt 0.894430 0.045207
vt 0.901069 0.051846
vt 0.553750 0.389843
vt 0.553750 0.383204
vt 0.560389 0.389843
vt 0.655002 0.050278
vt 0.655002 0.045207
vt 0.648363 0.050278
vt 0.825342 0.389843
vt 0.825342 0.383204
vt 0.818703 0.389843
vt 0.487733 0.984087
vt 0.491070 0.531674
vt 0.022436 0.528452
vt 0.022436 0.531674
vt 0.880554 0.529136
vt 0.951775 0.529137
vt 0.882868 0.906227
vt 0.882868 0.977448
vt 0.099884 0.460069
vt 0.093246 0.453430
vt 0.023807 0.453430
vt 0.094209 0.915142
vt 0.094209 0.977448
vt 0.882915 0.984087
vt 0.882915 0.051846
vt 0.882915 0.045207
vt 0.949409 0.453477
vt 0.956048 0.453477
vt 0.958414 0.597608
vt 0.951775 0.529183
vt 0.958414 0.529183
vt 0.878188 0.453430
vt 0.871549 0.460069
vt 0.108889 0.529136
vt 0.102250 0.535775
vt 0.873915 0.120888
vt 0.026173 0.529183
vt 0.095611 0.529136
vt 0.864910 0.453430
vt 0.102250 0.912963
vt 0.882868 0.127431
vt 0.889507 0.120792
vt 0.901022 0.646090
vt 0.095611 0.127527
vt 0.026173 0.127527
vt 0.873868 0.127574
vt 0.094162 0.051846
vt 0.094209 0.123067
vt 0.880554 0.127527
vt 0.951775 0.127527
vt 0.882868 0.114153
vt 0.102203 0.899685
vt 0.867276 0.906371
vt 0.094209 0.901864
vt 0.880554 0.906324
vt 0.019534 0.049667
vt 0.095611 0.975269
vt 0.026173 0.981908
vt 0.951775 0.912963
vt 0.958414 0.975269
vt 0.880554 0.981908
vt 0.951775 0.981908
vt 0.873915 0.049667
vt 0.095611 0.043028
vt 0.026173 0.043028
vt 0.717309 0.389131
vt 0.095611 0.120888
vt 0.958414 0.120888
vt 0.958414 0.049667
vt 0.095611 0.906324
vt 0.026173 0.906324
vt 0.873915 0.912963
vt 0.873915 0.975269
vt 0.880554 0.906324
vt 0.723948 0.389131
vt 0.648363 0.976737
vt 0.723948 0.504105
vt 0.201349 0.427376
vt 0.816569 0.646043
vt 0.643759 0.646043
vt 0.019098 0.505442
vt 0.103597 0.051615
vt 0.818703 0.977448
vt 0.200783 0.977448
vt 0.200783 0.389843
vt 0.475658 0.051846
vt 0.023807 0.521901
vt 0.025737 0.051846
vt 0.305341 0.389843
vt 0.122923 0.389843
vt 0.544604 0.051846
vt 0.873962 0.134166
vt 0.305657 0.051846
vt 0.809826 0.053184
vt 0.097977 0.607434
vt 0.108889 0.049667
vt 0.395242 0.051846
vt 0.880554 0.049667
vt 0.284878 0.051846
vt 0.559260 0.646090
vt 0.116850 0.427406
vt 0.717309 0.983376
vt 0.103597 0.505478
vt 0.560389 0.984087
vt 0.102250 0.906324
vt 0.867276 0.906324
vt 0.475658 0.646090
vt 0.491070 0.980865
vt 0.487733 0.528452
vt 0.019098 0.531674
vt 0.867276 0.529136
vt 0.873915 0.049667
vt 0.106523 0.453430
vt 0.102250 0.975269
vt 0.882868 0.892949
vt 0.026173 0.906324
vt 0.873915 0.975269
vt 0.094209 0.136345
vt 0.951775 0.906324
vt 0.717309 0.382492
vt 0.095611 0.127527
vt 0.951775 0.127527
vt 0.023807 0.453477
vn 1.0000 0.0000 0.0000
vn 0.0000 0.0000 1.0000
vn 0.0000 1.0000 0.0000
vn -1.0000 0.0000 0.0000
vn 0.0000 0.0000 -1.0000
vn 0.0000 -1.0000 0.0000
vn 0.5774 0.5774 -0.5774
vn -0.5774 0.5774 -0.5774
vn 0.5774 0.5774 0.5774
vn -0.5774 0.5774 0.5774
vn -0.6023 -0.1768 -0.7785
vn -0.4096 -0.4080 -0.8160
vn -0.5402 -0.2615 -0.7999
vn -0.4096 -0.4080 0.8160
vn -0.6023 -0.1768 0.7785
vn -0.5402 -0.2615 0.7999
vn 0.4096 -0.4080 0.8160
vn 0.6023 -0.1768 0.7785
vn 0.4083 -0.4082 0.8165
vn 0.4096 -0.4080 -0.8160
vn 0.6023 -0.1768 -0.7785
vn 0.5402 -0.2615 -0.7999
vn -0.8005 -0.5386 -0.2630
vn -0.7785 -0.1768 -0.6023
vn -0.7999 -0.2615 -0.5402
vn 0.7045 -0.7096 -0.0100
vn -0.7045 -0.7096 -0.0100
vn 0.7785 -0.1768 -0.6023
vn 0.8005 -0.5386 -0.2630
vn 0.7999 -0.2615 -0.5402
vn -0.8005 -0.5386 0.2630
vn -0.7785 -0.1768 0.6023
vn -0.7786 -0.6021 0.1765
vn 0.7045 -0.7096 0.0100
vn -0.5746 -0.5828 0.5746
vn 0.8005 -0.5386 0.2630
vn 0.7785 -0.1768 0.6023
vn 0.7999 -0.2615 0.5402
vn -0.5774 -0.5774 0.5773
vn 0.5774 -0.5774 0.5773
vn -0.5774 -0.5774 -0.5773
vn 0.5774 -0.5773 -0.5774
vn 0.5773 -0.5774 0.5774
vn 0.5774 -0.5774 -0.5773
vn 0.5774 -0.5773 0.5774
vn 0.5773 -0.5773 0.5774
vn -0.5773 -0.5774 0.5774
vn 0.0000 0.7071 0.7071
vn -0.7071 0.7071 0.0000
vn 0.0000 0.7071 -0.7071
vn 0.7071 0.7071 0.0000
vn -0.7071 0.0000 0.7071
vn -0.7071 0.0000 -0.7071
vn 0.7071 0.0000 -0.7071
vn 0.7071 0.0000 0.7071
vn 0.0000 -0.7071 0.7071
vn -0.7071 -0.7071 0.0000
vn 0.0000 -0.7071 -0.7071
vn 0.7071 -0.7071 0.0000
vn 0.7786 -0.6021 0.1765
vn 0.5402 -0.2615 0.7999
vn -0.4083 -0.4083 -0.8165
vn -0.4083 -0.4083 0.8165
vn 0.4083 -0.4082 -0.8165
vn -0.7786 -0.6021 -0.1765
vn 0.0100 -0.7096 -0.7045
vn 0.5746 -0.5828 -0.5746
vn -0.5746 -0.5828 -0.5746
vn -0.0100 -0.7096 -0.7045
vn 0.7786 -0.6021 -0.1765
vn -0.7999 -0.2615 0.5402
vn 0.5746 -0.5828 0.5746
vn 0.0100 -0.7096 0.7045
vn -0.7045 -0.7096 0.0100
vn -0.0100 -0.7096 0.7045
usemtl legno
s 1
f 52/1/1 72/2/1 2/3/1
f 106/4/1 34/5/1 59/6/1
f 10/7/2 28/8/2 7/9/2
f 8/10/3 6/11/3 12/12/3
f 79/13/4 13/14/4 37/15/4
f 4/16/4 40/17/4 11/18/4
f 77/19/1 51/20/1 16/21/1
f 98/22/4 66/23/4 24/24/4
f 110/25/5 38/26/5 45/27/5
f 100/28/4 26/29/4 46/30/4
f 91/31/1 19/32/1 69/33/1
f 55/34/6 44/35/6 39/36/6
f 53/37/6 64/38/6 71/39/6
f 113/40/5 47/41/5 54/42/5
f 90/43/6 107/44/6 117/45/6
f 80/46/6 105/47/6 84/48/6
f 96/49/6 120/50/6 99/51/6
f 23/52/6 63/53/6 35/54/6
f 119/55/2 70/56/2 65/57/2
f 83/58/2 31/59/2 14/60/2
f 68/61/6 43/62/6 62/63/6
f 27/64/6 42/65/6 50/66/6
f 89/67/4 57/68/4 18/69/4
f 104/70/1 41/71/1 30/72/1
f 95/73/5 21/74/5 20/75/5
f 25/76/2 76/77/2 15/78/2
f 85/79/5 17/80/5 33/81/5
f 78/82/6 101/83/6 114/84/6
f 116/85/2 60/86/2 56/87/2
f 1/88/7 3/89/7 2/90/7
f 4/16/8 6/91/8 5/92/8
f 7/93/9 9/94/9 8/95/9
f 10/96/10 12/97/10 11/98/10
f 24/99/11 22/100/12 21/74/13
f 28/101/14 26/102/15 25/76/16
f 32/103/17 30/104/18 29/105/19
f 36/106/20 34/107/21 33/108/22
f 40/109/23 38/110/24 37/15/25
f 45/111/26 44/112/26 43/113/26
f 49/114/27 48/115/27 47/116/27
f 54/117/28 52/118/29 51/20/30
f 58/119/31 56/120/32 55/121/33
f 62/63/34 61/122/34 60/123/34
f 68/61/35 66/124/35 65/125/35
f 72/126/36 70/127/37 69/33/38
f 73/128/39 75/129/39 74/130/39
f 76/77/40 78/131/40 77/132/40
f 79/133/41 81/134/41 80/135/41
f 82/136/39 84/137/39 83/138/39
f 85/139/42 87/140/42 86/141/42
f 88/142/41 90/143/41 89/144/41
f 91/145/43 93/146/43 92/147/43
f 94/148/44 96/149/44 95/150/44
f 97/151/41 99/152/41 98/153/41
f 100/154/41 102/155/41 101/156/41
f 103/157/45 105/158/45 104/159/45
f 106/4/46 108/160/46 107/161/46
f 109/162/42 111/163/42 110/164/42
f 112/165/44 114/166/44 113/167/44
f 115/168/47 117/169/47 116/170/47
f 118/171/47 120/172/47 119/173/47
f 10/174/48 8/10/48 12/12/48
f 4/175/49 12/12/49 6/11/49
f 1/176/50 6/11/50 3/177/50
f 9/94/51 3/177/51 8/10/51
f 28/8/2 25/178/2 15/179/2
f 40/17/4 37/180/4 13/181/4
f 36/182/5 33/183/5 17/184/5
f 72/2/1 69/185/1 19/186/1
f 11/18/52 14/187/52 10/96/52
f 18/188/53 5/92/53 17/189/53
f 20/190/54 2/90/54 19/191/54
f 9/192/55 15/193/55 16/194/55
f 20/190/5 21/195/5 22/196/5
f 29/197/56 28/8/56 32/198/56
f 46/199/57 27/64/57 50/66/57
f 14/200/2 31/201/2 32/198/2
f 23/202/58 36/182/58 22/196/58
f 59/203/59 35/54/59 63/53/59
f 55/204/33 40/17/23 58/205/31
f 29/105/59 41/71/59 42/206/59
f 39/36/58 45/207/58 38/208/58
f 64/38/6 49/209/6 68/61/6
f 43/62/6 50/66/6 42/65/6
f 16/210/1 51/211/1 52/1/1
f 47/212/58 53/37/58 54/213/58
f 18/188/4 57/214/4 58/205/4
f 44/35/6 62/63/6 43/62/6
f 55/34/56 60/123/56 61/215/56
f 23/52/57 66/124/57 67/216/57
f 63/53/6 68/61/6 62/63/6
f 52/1/29 71/217/60 72/2/36
f 65/218/56 71/39/56 64/38/56
f 74/130/56 76/77/56 73/128/56
f 80/46/57 82/219/57 79/133/57
f 86/220/58 88/221/58 85/139/58
f 92/222/59 94/223/59 91/145/59
f 96/49/58 97/224/58 95/225/58
f 101/83/57 75/226/57 100/154/57
f 84/48/56 103/227/56 83/228/56
f 107/161/59 87/229/59 106/4/59
f 105/158/59 109/162/59 104/70/59
f 81/134/58 111/230/58 80/46/58
f 78/82/59 112/231/59 77/232/59
f 102/155/58 114/84/58 101/83/58
f 90/143/57 115/168/57 89/67/57
f 117/45/56 108/233/56 116/234/56
f 99/51/57 118/235/57 98/236/57
f 120/50/56 93/146/56 119/237/56
f 34/5/21 85/238/54 33/108/22
f 106/4/55 60/239/55 108/160/55
f 56/120/32 115/168/52 116/170/52
f 89/67/53 17/240/53 88/142/53
f 16/241/55 76/77/55 77/132/55
f 73/128/52 26/102/15 75/129/52
f 41/71/54 110/164/54 45/111/54
f 103/157/55 30/72/18 31/242/61
f 24/99/11 97/151/53 98/153/53
f 95/73/54 19/243/54 94/148/54
f 13/14/52 83/138/52 14/244/52
f 79/13/53 38/110/24 81/245/53
f 66/23/52 119/173/52 65/246/52
f 100/28/53 47/247/53 102/248/53
f 91/31/55 70/127/37 93/249/55
f 54/117/28 112/165/54 113/167/54
f 22/196/5 36/182/5 5/250/5
f 9/251/1 16/210/1 52/1/1
f 72/2/1 19/186/1 2/3/1
f 9/251/1 52/1/1 2/3/1
f 106/4/1 87/229/1 34/5/1
f 10/7/2 14/200/2 32/198/2
f 28/8/2 15/193/2 7/9/2
f 10/7/2 32/198/2 28/8/2
f 8/10/3 3/177/3 6/11/3
f 79/13/4 82/136/4 13/14/4
f 4/16/4 18/188/4 58/205/4
f 40/17/4 13/181/4 11/18/4
f 4/16/4 58/205/4 40/17/4
f 77/19/1 112/165/1 51/20/1
f 98/22/4 118/171/4 66/23/4
f 110/25/5 81/252/5 38/26/5
f 100/28/4 75/253/4 26/29/4
f 91/31/1 94/254/1 19/32/1
f 55/34/6 61/215/6 44/35/6
f 53/37/6 48/255/6 64/38/6
f 113/40/5 102/256/5 47/41/5
f 90/43/6 86/220/6 107/44/6
f 80/46/6 111/230/6 105/47/6
f 96/49/6 92/222/6 120/50/6
f 23/52/6 67/216/6 63/53/6
f 119/55/2 93/257/2 70/56/2
f 83/58/2 103/258/2 31/59/2
f 68/61/6 49/209/6 43/62/6
f 27/64/6 29/259/6 42/65/6
f 89/67/4 115/168/4 57/68/4
f 104/70/1 109/162/1 41/71/1
f 95/73/5 97/151/5 21/74/5
f 25/76/2 73/128/2 76/77/2
f 85/79/5 88/260/5 17/80/5
f 78/82/6 74/261/6 101/83/6
f 116/85/2 108/262/2 60/86/2
f 24/99/11 23/263/62 22/100/12
f 28/101/14 27/264/63 26/102/15
f 32/103/17 31/242/61 30/104/18
f 36/106/20 35/265/64 34/107/21
f 40/109/23 39/266/65 38/110/24
f 42/206/66 41/71/66 43/113/66
f 41/71/67 45/111/67 43/113/67
f 47/116/68 46/199/68 49/114/68
f 46/199/69 50/66/69 49/114/69
f 54/117/28 53/267/70 52/118/29
f 58/119/31 57/68/71 56/120/32
f 60/123/72 59/203/72 62/63/72
f 59/203/73 63/268/73 62/63/73
f 65/125/74 64/38/74 68/61/74
f 68/61/75 67/269/75 66/124/75
f 72/126/36 71/270/60 70/127/37
f 10/174/48 7/93/48 8/10/48
f 4/175/49 11/271/49 12/12/49
f 1/176/50 5/272/50 6/11/50
f 9/94/51 2/273/51 3/177/51
f 11/18/52 13/181/52 14/187/52
f 18/188/53 4/16/53 5/92/53
f 20/190/54 1/88/54 2/90/54
f 9/192/55 7/9/55 15/193/55
f 29/197/56 27/274/56 28/8/56
f 46/199/57 26/275/57 27/64/57
f 23/202/58 35/276/58 36/182/58
f 59/203/59 34/277/59 35/54/59
f 55/204/33 39/278/65 40/17/23
f 29/105/59 30/72/59 41/71/59
f 39/36/58 44/35/58 45/207/58
f 64/38/6 48/255/6 49/209/6
f 43/62/6 49/209/6 50/66/6
f 47/212/58 48/255/58 53/37/58
f 44/35/6 61/215/6 62/63/6
f 55/34/56 56/279/56 60/123/56
f 23/52/57 24/280/57 66/124/57
f 63/53/6 67/216/6 68/61/6
f 52/1/29 53/281/70 71/217/60
f 65/218/56 70/282/56 71/39/56
f 74/130/56 78/131/56 76/77/56
f 80/46/57 84/48/57 82/219/57
f 86/220/58 90/43/58 88/221/58
f 92/222/59 96/49/59 94/223/59
f 96/49/58 99/51/58 97/224/58
f 101/83/57 74/261/57 75/226/57
f 84/48/56 105/47/56 103/227/56
f 107/161/59 86/283/59 87/229/59
f 105/158/59 111/163/59 109/162/59
f 81/134/58 110/284/58 111/230/58
f 78/82/59 114/84/59 112/231/59
f 102/155/58 113/285/58 114/84/58
f 90/143/57 117/169/57 115/168/57
f 117/45/56 107/44/56 108/233/56
f 99/51/57 120/50/57 118/235/57
f 120/50/56 92/222/56 93/146/56
f 34/5/21 87/229/54 85/238/54
f 106/4/55 59/6/55 60/239/55
f 56/120/32 57/68/71 115/168/52
f 89/67/53 18/69/53 17/240/53
f 16/241/55 15/78/55 76/77/55
f 73/128/52 25/76/16 26/102/15
f 41/71/54 109/162/54 110/164/54
f 103/157/55 104/70/55 30/72/18
f 24/99/11 21/74/13 97/151/53
f 95/73/54 20/75/54 19/243/54
f 13/14/52 82/136/52 83/138/52
f 79/13/53 37/15/25 38/110/24
f 66/23/52 118/171/52 119/173/52
f 100/28/53 46/30/53 47/247/53
f 91/31/55 69/33/38 70/127/37
f 54/117/28 51/20/30 112/165/54
f 1/88/5 20/190/5 22/196/5
f 36/182/5 17/286/5 5/250/5
f 1/88/5 22/196/5 5/250/5
